<svg xmlns="http://www.w3.org/2000/svg" width="1066.667" height="1066.667" version="1" viewBox="0 0 800.000000 800.000000">
  <path d="M335.5 179c-.3.5-3.4 2.8-6.9 5-6.3 4.1-6.3 4.1-6.9 9.7-.9 8.3-4.7 15.1-12.8 22.8-3.9 3.6-8.1 7.1-9.4 7.7-4 1.8-4.8 5.5-3.1 13.2 1.5 6.3 1.5 7.1-.4 14-1.3 4.5-2.3 12.7-2.8 21.7-.9 15.7-.7 16.8 4.7 24.9 2.9 4.2 2.9 4.5 1.3 6.3-2.6 2.9-2.2 16.4.7 24.2 1.2 3.3 3.8 11.1 5.6 17.4 1.8 6.3 4.3 12.7 5.5 14.4 1.9 2.5 2.2 4.1 2.1 10.8-.1 7.7-.1 7.9 3.4 11.8 2 2.2 4.6 4.1 5.8 4.3 2 .3 2.3 1.2 3.4 8.8.6 4.7 2.5 12.2 4.2 16.8 3.7 10 3.8 11.2.7 11.2-2.7 0-6 3.4-15.4 15.7-9.4 12.4-12.4 14.4-32.3 21.7-9.6 3.5-23.9 8.5-31.9 11.1-8 2.7-14.9 5.2-15.4 5.6-1 .9-2.6 8.9-1.7 8.9.3 0 10.8-2.9 23.2-6.4 12.4-3.6 24.3-6.8 26.4-7.2 3.5-.6 3.8-.5 3.1 1.2-.4 1-1 3.1-1.3 4.6l-.5 2.7 10.2-4.7c12.9-5.9 18-10.3 21-17.9 3-7.5 3.8-8.5 6.8-8.1 2.4.3 2.7 1 5.9 16.3 5.2 25.3 18 77.6 19.2 78.8 2.3 2.3 2.4-.8.2-13.1-11-61-14.6-92-10.8-93.5.8-.3 5 3.1 9.9 7.8 9.9 9.5 14.4 13 34.9 26.6 8.2 5.4 14.9 10.1 14.9 10.3 0 .3-3.8.2-8.3-.1-10-.7-16.8.2-19.8 2.6l-2.1 1.7 1.6 10.5c1.1 7.1 2.2 10.8 3.3 11.6 2.8 2.1 9.1 1.6 22.5-1.9 7-1.8 12.9-3 13.1-2.8.3.3-.3 5-1.3 10.5-2.9 16.2-4 32.7-4 60.3v26l7.5 2.5c6.7 2.3 7.5 2.4 7.9.9.3-.9.8-12.5 1.2-25.7.4-13.2.8-24.7 1-25.5.1-.8.3-3.7.3-6.3.1-2.7.5-4.6 1-4.3.8.6 2.5 8.7 7.1 36.1 1.1 6.6 2.3 12.6 2.5 13.3.3.9 2.2.1 6.3-2.6 3.2-2.2 6.3-4.6 6.9-5.3.8-1 .2-7-2.3-22.4-5.6-35.5-8-46.2-12-53.3-2-3.5-3.4-6.6-3.1-6.8.3-.3 2.7.2 5.4 1.1 6.6 2.3 29.1 3.3 31.6 1.3 1.3-1 1.8-3.3 2.3-10.3.3-5 .1-9.6-.4-10.2-1.1-1.7-26.5-2-30.4-.5-1.5.6-3 .8-3.2.3-.7-1.1 1.2-2.7 11.9-9.8 9.5-6.4 20.5-15.2 20.5-16.5 0-.4-1.2-.3-2.7.3-11.7 4.6-19.7 6.9-20.7 5.9-.7-.7-.3-1.5 1.4-2.7 7.6-5.3 18.9-18.7 19-22.6 0-.4-3.7 2.5-8.2 6.4-4.6 3.9-10 8.1-12.1 9.3-2.3 1.3-4 3.1-4.3 4.6-1.4 6.4-2.9 9.5-7.9 17-2.9 4.4-5.6 9.3-6 10.8-.5 2.5-1 2.8-4.6 2.8-3.6-.1-4.3-.5-6.5-4.1-1.3-2.2-2.4-4.8-2.4-5.8 0-2.2-.8-2.2-3.3 0-1.1 1-2.2 1.3-2.3.8-.6-1.5-3.6-6.8-6.9-12.2-2.6-4.1-3.1-6-3.3-12.8-.3-6.6.1-9.3 2.2-15.4 2.8-8.1 3.2-13.2 1.5-21.1-.6-2.7-.9-5.5-.7-6.1.7-2 6.6 4 7.4 7.4 1 4.5 2 1.2 1.5-4.9-.3-4.1-.7-4.7-3.6-6-4.3-1.8-4.8-2.6-2.9-5.2 2-2.9 7.3-4.2 17.7-4.2 6.2 0 10.4-.6 14.4-2 10.2-3.6 17-2.2 15.9 3.1-.8 4.1.9 3.6 4-1.1 1.5-2.2 3.2-4.1 3.8-4.1 2.5-.3 5.2.3 7.3 1.7 3.3 2.1 3.5 1.8 3.1-2.6-.2-2.2-.2-4 0-4s10.5 7 23 15.5c20.5 14.1 22.8 15.4 23.9 13.8.7-.9 1.3-1.9 1.3-2.2-.1-.3-3.7-3.1-8.1-6.1-4.4-3-10.3-7.2-13.2-9.3-2.9-2.1-10-7-15.9-10.9-10.6-6.9-13.1-9.8-8.5-9.8 7.6-.1 5.2-6.5-5.3-14.1-4.3-3.1-7.8-6.6-8.9-8.8-2.3-4.5-4.6-6.6-9.4-8.6-5-2.1-5.7-1.9-6.8 1.5-.6 1.6-1.6 3-2.2 3.1-3.3.2-6.4 1.1-9.7 3l-3.8 2.2-2.3-2.2c-1.2-1.1-3-2.1-3.8-2.2-.9-.1-3.7-.2-6.3-.3-6.6-.3-9.8-3.4-9.8-9.2 0-2.4.5-5.5 1.1-7.1.6-1.5 1.2-6.9 1.5-11.8.6-12.9 1.2-19.6 1.8-20.2 1-1 9.1-1.4 10.4-.5.7.5 2 3.5 2.8 6.8 2.5 9.6 8.1 19.9 13.5 24.8 11.3 10.2 25.3 13 40.7 8.1 12.5-4 16-8.4 23.2-29.8 3.3-9.8 3.9-10.9 4.5-8.4.4 1.5.5 4.9.1 7.5-.8 6.1.7 15.2 2.8 16.7 2.4 1.8 3.3 5.4 2.6 9.7-.8 4-.1 4.8 2 2.3 1.6-1.9 1.7-9.2.1-10.8-2-2-1.2-6.2 1.8-9.1 2-1.9 2.7-3.4 2.4-5.1-.6-3 4.3-6.8 5.8-4.4.5.8.9 2.5.9 3.9s.3 3.6.7 4.8c.8 3.3 2.3.8 2.3-4.2 0-3.6.2-3.8 2.6-3.3 1.6.3 2.8 0 3.1-.9 1-2.6-.8-10.5-2.8-12.5-2.4-2.4-2.4-3.1.3-8.2 1.6-3 2.2-6.1 2.3-10.7.1-3.6.4-7.3.9-8.2.7-1.5.3-1.4-3 .3-2.1 1-4.4 1.9-5.2 1.9-.8 0-1.9 1.3-2.5 3-1.2 3.1-3.4 3.9-5.4 1.9-1.2-1.2-1.6-.8-3.2 4.3-.7 2.1-1.7 3.8-2.3 3.8-.7 0-5-.8-9.7-1.7-6.7-1.3-13.7-1.7-31.6-1.6-12.6 0-24.3.2-26 .3-1.6.1-4.2-.1-5.7-.5-2.4-.6-3.3-.1-6.5 3.1l-3.8 3.9h-12c-11.2 0-12.3-.2-16.5-2.7-9-5.3-14.3-6.1-35.2-5.3-18 .7-18.8.6-18.1-1.2.3-1 1.8-2.9 3.3-4.3 1.5-1.4 3.5-4.7 4.5-7.3 2.1-6 5.7-10.3 9.2-11.2 1.4-.3 3.5-1.2 4.5-1.9 1.8-1.3 1.8-1.5.3-3-.9-.9-2.3-1.6-3-1.6-4.2 0-4.4-12.3-.4-20.3s8.6-11.6 18.9-14.7l5.5-1.7-3.2-3c-6.2-5.8-15.6-6.6-22.6-1.9-2.5 1.8-3.8 2.1-4.6 1.3-1.4-1.4-1.4-4.3-.1-6.8 2-3.7-.9-2-3.7 2.2-2.3 3.5-2.8 5.5-3.4 14.9-.7 9-1.2 11.5-3 14-1.3 1.6-2.6 3-3 3-.4 0-1.7 1.3-2.9 3-2.1 3-4 14.2-5.5 33.5-.6 8.3-1.3 9.5-5.5 9.5-1.4 0-4 .4-5.8.9-1.7.5-3.2.6-3.2.2 0-.5-1.8-2.8-4-5.2-4.3-4.8-5-8.1-2.3-11.1 1.5-1.7 1.5-2-1.3-4.9l-2.9-3.1 2.6-2.2 2.7-2.3-2.3-8.9c-1.3-4.9-2.6-11-3-13.6-.6-4.3-.8-4.6-3.3-4.5-2.2.2-2.8-.3-3-2.5-.3-2.4.3-3 5-5.4 2.9-1.5 7.9-5.3 11-8.5 3.2-3.3 6-5.9 6.4-5.9.4 0 .4 2.3.1 5.1l-.6 5.2 2-1.9c2.2-2 6-9 7.4-13.4 2.6-8.2 9.5-14.5 18.8-17l6.2-1.7-3.3-1.7c-4.2-2.2-4.1-4.3.3-5.2 5.9-1.1 4.8-2.1-3.8-3.3-10-1.4-12.4-1.4-13.2-.1zm183.3 124.2c1.7 1.7 1.5 2.8-.5 2.8-1 0-3 .7-4.5 1.4-3.7 2-4.5.2-1.4-2.9 2.8-2.8 4.6-3.1 6.4-1.3zm-196.8 10c0 7.9-.2 7.9-4.6-.6-2.8-5.3-2.3-6.6 2.4-6.6 2.1 0 2.2.4 2.2 7.2zm71.6 37.1c-.4 4.9-.5 5.2-3.4 5.5-3.5.4-4.8-2-3.3-6.1 1.1-2.7 4.9-5.9 6.3-5.1.4.3.6 2.9.4 5.7zm-29.6-1.7c4.7-.2 9.5-.8 10.8-1.2 4.1-1.2 2.4 2.3-2.7 5.4-2.7 1.7-7.7 5.1-11.1 7.6-5 3.7-6.7 4.5-8.9 4-4.2-1.1-5.1-2.3-5.1-7.7 0-3.2-.7-6.1-2-8.2l-2-3.3 6.2 2c5 1.6 8 1.9 14.8 1.4zm80.4 11.5c1.4 1.7 2.9 4.3 3.2 5.7 1.8 8.4 3.9 10.6 7.5 8.4 2.4-1.5 3.6-.7 3.9 2.3.4 3.8 0 4.5-2.5 4.5-1.8 0-2.5.5-2.5 1.9 0 2.7-3.9 3.3-9.5 1.7-3.4-1.1-5.5-1.2-7.3-.5-1.8.7-4.7.7-8.7 0-3.3-.5-12.3-.8-20-.7-7.7.2-15-.2-16.2-.7-1.7-.7-2.9-.6-4.7.7-2.9 1.8-8.8 2.1-11.7.5-1.5-.7-2.4-.7-3.5.1-2.7 2.3-2.6-1.5.1-7.3 3.3-7 6-9.5 8.3-8 1.3.8 2.5.6 5-.9 2.8-1.7 3.7-1.9 5.7-.8 1.6.9 2.8.9 4.2.2 1.5-.9 3-.6 6.4 1.1 5.3 2.6 14.5 3 17.2.7.9-.8 3-2.7 4.7-4.3 1.8-1.7 4.1-2.7 5.9-2.7 2.2 0 3.7-.9 5.8-3.4 3.1-3.9 4.3-3.7 8.7 1.5zm-90.1 17.5c1.1.4 1.3 1.7.9 5-.2 2.4 0 7 .7 10.2.6 3.1 1.2 8.8 1.2 12.7.3 10.7 4.1 13.9 7.9 6.5 1.1-2.2 2.5-4 3-4s1.6 2.6 2.5 5.7c.9 3.2 2 7.4 2.5 9.3 1.4 5.3 0 5.7-7.9 2.6-10.1-3.9-14.6-7.5-14.9-11.7-.1-1.8-1.8-6.5-3.7-10.4-1.8-3.9-3.9-10.1-4.6-13.8-1.2-6.4-1.1-6.9.8-8.8 1.1-1.2 3.6-2.5 5.4-2.9 4.6-1.1 4.5-1.1 6.2-.4zm77.3 16.7c.3.3-.4 1.1-1.7 1.7-1.5.9-6.4 1.1-15.8.8-13-.5-18.4-1.4-16.3-2.7 1.3-.7 33-.6 33.8.2zm-69.5 45.4c6.6 7.1 8.3 9.3 7.1 9.3-2.2 0-13.2-10.1-13.2-12 0-3 1.1-2.5 6.1 2.7z"/>
  <path d="M387 216.7c.1 1.6 3.5 5.1 5.8 5.8 3.4 1 2.6-.7-1.8-3.8-2.2-1.6-4-2.5-4-2zm-16.4 59.2c-.9.9-1.6 2-1.6 2.3 0 .4 2.3 1.1 5.2 1.7 8.2 1.8 8.3-.4.2-4.7-1.7-.9-2.5-.8-3.8.7zm85.1 1.1c-7 1.3-6.5 2.5 1.6 3.4 5.6.6 5.7.6 5.7-1.9 0-2.7-.6-2.8-7.3-1.5zm61.4 126.4c-2.5 4-2.6 4.6-.5 4.6 1.3 0 1.2.5-.6 3-1.8 2.5-1.9 3-.6 3 1.9 0 1.9.1.5 3.7-1 2.8-1 2.8 2.6-.7l3.6-3.5-3.1-.5-3.2-.5 2.6-2.4c1.9-1.8 2.3-2.7 1.4-3.2-.9-.6-.8-1.2.3-2.6 2.9-3.3 3.1-4.3 1-4.3-1.1 0-2.8 1.4-4 3.4z"/>
</svg>
